Coordinates
version=1
nRows=17
nColumns=34
inDegrees=yes

Units are S.I. units (second, meters, Newtons, ...)
If the header above contains a line with 'inDegrees', this indicates whether rotational values are in degrees (yes) or radians (no).

endheader
time	pelvis_tilt	pelvis_list	pelvis_rotation	pelvis_tx	pelvis_ty	pelvis_tz	hip_flexion_r	hip_adduction_r	hip_rotation_r	knee_angle_r	ankle_angle_r	subtalar_angle_r	mtp_angle_r	hip_flexion_l	hip_adduction_l	hip_rotation_l	knee_angle_l	ankle_angle_l	subtalar_angle_l	mtp_angle_l	lumbar_extension	lumbar_bending	lumbar_rotation	arm_flex_r	arm_add_r	arm_rot_r	elbow_flex_r	pro_sup_r	arm_flex_l	arm_add_l	arm_rot_l	elbow_flex_l	pro_sup_l
      4.23333330	     -1.24844618	     -9.21431355	      2.23291829	      0.17641082	      0.85728125	     -0.12390692	     45.81539253	      1.81915346	     -3.08976856	      4.01402179	    -18.05203727	    -16.17285285	      0.00000000	     35.39228130	     -1.93242138	      1.26220375	     55.08356428	      1.92567882	    -35.00000000	      0.00000000	    -21.16668569	      2.13696353	      4.08554289	     66.07316609	     11.77999250	     63.45851477	    116.63138898	    103.95408381	     62.58258269	      6.37831974	     50.46205413	    104.02920911	     78.04377970
      4.25000000	     -1.21205502	     -9.14386918	      2.49724575	      0.17282860	      0.85175334	     -0.12360111	     46.40960658	      1.57006759	     -4.00386611	      3.40496036	    -18.54089711	    -15.59302542	      0.00000000	     36.19387694	     -1.76031092	      1.33699409	     56.35111014	      1.74764458	    -35.00000000	      0.00000000	    -21.86434672	      1.93439886	      4.03680439	     66.36615976	     11.72410913	     63.20152736	    117.09792369	    103.96406720	     63.07323993	      6.69649358	     51.58061225	    105.35417414	     78.32978368
      4.26666670	     -1.41472895	     -8.97709060	      2.30938933	      0.17226535	      0.84857507	     -0.12374509	     47.24457560	      1.43810642	     -4.96839981	      3.61469375	    -18.92613384	    -16.08166506	      0.00000000	     36.91847803	     -1.70338830	      1.08592456	     56.96427673	      1.71239998	    -35.00000000	      0.00000000	    -22.61901930	      1.72807240	      4.11843952	     66.66779085	     12.04755183	     63.25605136	    117.10001315	    103.97724960	     63.97292340	      6.56587867	     51.28710513	    105.11110766	     78.37746273
      4.28333330	     -1.51864401	     -8.76243090	      2.68403492	      0.16972107	      0.84733798	     -0.12434379	     47.81702403	      1.01696747	     -5.03327571	      3.13234572	    -19.59714429	    -15.47783497	      0.00000000	     37.43765602	     -1.15297800	      1.46880085	     57.64166334	      2.97085497	    -35.00000000	      0.00000000	    -23.03091902	      1.45912933	      3.53482309	     66.96108304	     12.27468554	     63.66336335	    117.22270870	    104.02115071	     64.67529546	      6.27165757	     50.93031235	    103.82723968	     78.43224476
      4.30000000	     -1.46702210	     -8.54312068	      3.37819911	      0.16550719	      0.84128949	     -0.12428008	     48.22120123	      0.34702701	     -5.51726718	      2.50955204	    -19.09196518	    -13.74944514	      0.00000000	     38.23217900	     -0.37891050	      2.03171680	     58.89195752	      5.01385014	    -35.00000000	      0.00000000	    -23.60930040	      1.29101400	      3.59230055	     67.65876378	     11.66337863	     63.82712978	    117.54173553	    104.04565911	     65.74971822	      6.87264067	     50.43804370	    101.56192572	     78.54385188
      4.31666670	     -1.48820876	     -8.31444258	      3.98427169	      0.16436772	      0.83991553	     -0.12597444	     48.58232512	     -0.34633986	     -5.93160395	      2.49868963	    -19.12128061	    -13.64852134	      0.00000000	     39.00411054	      0.27398900	      2.48015578	     59.92363284	      5.52180466	    -35.00000000	      0.00000000	    -24.32035860	      1.22482900	      3.82750416	     68.65799709	     10.96169047	     63.05808773	    117.21387212	    103.99154206	     66.34098611	      7.68019870	     50.57944411	    102.14549156	     78.59172433
      4.33333330	     -1.41313336	     -8.31240295	      4.26064843	      0.16191975	      0.83454196	     -0.12566290	     49.09108256	     -0.60407055	     -6.08381127	      2.65702513	    -19.48000465	    -13.11701441	      0.00000000	     39.54107305	      0.38849716	      2.43459510	     60.97358176	      5.94326458	    -35.00000000	      0.00000000	    -24.94662960	      1.11132276	      4.07377698	     69.35483266	     10.63592466	     62.71334671	    117.44152978	    103.93782887	     67.04127238	      8.32447917	     51.05102591	    102.86043373	     78.66633513
      4.35000000	     -1.26017688	     -8.32703362	      4.12375741	      0.16312058	      0.83122173	     -0.12590595	     49.28267639	     -0.62236195	     -6.54654016	      2.66552658	    -20.06183614	    -12.95090767	      0.00000000	     39.81920097	      0.52903535	      2.63497751	     61.73391180	      5.36643177	    -35.00000000	      0.00000000	    -25.57531609	      0.96964278	      4.51942551	     69.71552096	     10.13013066	     62.65805953	    118.33161057	    103.84422507	     67.46527900	      8.73914855	     52.70149500	    104.83069359	     78.90054059
      4.36666670	     -1.38675089	     -7.75967813	      4.01615868	      0.15938411	      0.82554160	     -0.12524591	     49.88746372	     -1.04598108	     -6.73069324	      2.03647314	    -19.92390121	    -11.55783288	      0.00000000	     40.41820452	      1.34861743	      2.62320847	     62.60871547	      5.91380905	    -35.00000000	      0.00000000	    -26.00165881	      0.02805723	      4.12163691	     70.38909698	     10.48693747	     63.64074929	    119.66988632	    103.81509594	     68.10386270	      8.95516928	     54.86219041	    107.38129083	     79.25180212
      4.38333330	     -1.25811877	     -7.99212379	      3.97287162	      0.15741993	      0.82054942	     -0.12547314	     50.20861997	     -0.83201110	     -6.78673723	      2.32397763	    -19.46151483	    -11.56859378	      0.00000000	     41.13947680	      1.28828569	      3.06659972	     63.88835912	      5.36882670	    -35.00000000	      0.00000000	    -26.35366536	      0.25578555	      4.36573418	     71.40562434	     10.55758021	     63.68549382	    119.77664633	    103.79124061	     68.81305019	      9.29623797	     55.62992194	    108.09346802	     79.41024538
      4.40000000	     -1.71785506	     -8.18040340	      3.73037375	      0.15777346	      0.81637200	     -0.12504175	     50.89529529	     -0.59808758	     -7.24953293	      2.50009715	    -19.38843561	    -12.20511763	      0.00000000	     42.30717992	      1.32569904	      3.49949406	     64.80606298	      5.77385274	    -35.00000000	      0.00000000	    -26.43739066	      0.32024943	      4.52741589	     72.38653729	     10.55853079	     64.31526626	    120.03622082	    103.76437038	     69.92074381	      9.08044796	     56.27992440	    108.59979616	     79.71299683
      4.41666670	     -2.15416178	     -8.69405278	      3.23306848	      0.15615024	      0.81268810	     -0.12418463	     51.65142836	      0.10488882	     -7.20746837	      3.12859080	    -19.35328776	    -13.64885470	      0.00000000	     42.83389431	      0.76140840	      3.77096554	     66.02372246	      4.10948638	    -35.00000000	      0.00000000	    -26.23623526	      0.67471223	      5.11823429	     72.84522711	     10.51755549	     64.75292262	    120.02560168	    103.73807845	     70.33127094	      9.07224775	     56.64586455	    109.29540325	     79.99400891
      4.43333330	     -2.32038939	     -8.87441418	      2.97183676	      0.15626081	      0.81280553	     -0.12479711	     51.91226648	      0.37820697	     -7.01464788	      2.61366916	    -19.05670262	    -13.87769269	      0.00000000	     42.94096739	      0.65640361	      3.87749519	     66.69309537	      3.54276610	    -35.00000000	      0.00000000	    -26.31591161	      0.61912997	      5.30644642	     72.95821714	     10.44625487	     64.77962533	    119.90151984	    103.72865807	     70.60976412	      8.90735048	     56.70081120	    109.35791509	     80.06974176
      4.45000000	     -2.14763110	     -8.83507494	      2.81060328	      0.15498171	      0.80851722	     -0.12386791	     52.04901347	      0.44044453	     -6.86461370	      2.39552131	    -19.13512044	    -13.57373651	      0.00000000	     42.88924287	      0.67670937	      3.77040978	     67.67714068	      2.01470849	    -35.00000000	      0.00000000	    -26.50195457	      0.42824068	      5.80142679	     73.25660311	     10.16464994	     64.66120480	    119.56585777	    103.65254558	     70.56314819	      9.30284345	     58.51782976	    111.22272923	     80.42688278
      4.46666670	     -2.31973720	     -8.46306015	      3.13555743	      0.15575745	      0.80657935	     -0.12476572	     52.02636440	     -0.15247726	     -6.48240785	      1.01450432	    -19.26331670	    -12.80596502	      0.00000000	     43.39899068	      1.47313490	      4.03918539	     68.16401008	      2.08987780	    -35.00000000	      0.00000000	    -26.78810207	      0.03669898	      5.42580759	     73.46627108	     10.04389856	     64.44343658	    119.36740493	    103.62285113	     70.93805038	      9.21283586	     58.70806345	    111.29098152	     80.50890256
      4.48333330	     -2.06796749	     -7.85768803	      3.33697189	      0.15604301	      0.80220320	     -0.12384235	     52.02481389	     -0.64495711	     -7.96951735	      0.08031751	    -17.51898367	     -7.39043010	      0.00000000	     43.11148640	      2.14920985	      3.71288107	     68.98316357	     -0.60990612	    -35.00000000	      0.00000000	    -27.41566116	     -0.92479543	      4.49123391	     73.36497799	     10.50383563	     64.21599671	    119.53324967	    103.43787465	     71.90045202	      8.59684477	     60.22787408	    111.89079487	     81.29451839
      4.50000000	     -2.10349795	     -7.19262278	      3.03778831	      0.15475152	      0.79945620	     -0.12332127	     52.58701889	     -0.96560356	     -7.85900537	      0.00000000	    -17.65820921	     -6.20856332	      0.00000000	     43.44726083	      2.61260953	      3.21825815	     69.37650276	     -1.77312531	    -35.00000000	      0.00000000	    -27.79240113	     -2.02776745	      3.76379993	     73.42945166	     10.94394329	     64.02373401	    119.59226291	    103.40066252	     72.48067553	      7.95880782	     59.63263871	    111.34835242	     81.40875243
